<svg width="186" height="56" viewBox="0 0 186 56" fill="none" xmlns="http://www.w3.org/2000/svg">
<rect width="186" height="56" rx="28" fill="#222222"/>
<path d="M20.6318 12.4199C20.2527 12.799 20 13.4308 20 14.1889V42.1142C20 42.8724 20.2527 43.5042 20.6318 43.8832L20.7582 44.0096L36.4266 28.3411V28.2148V28.0884L20.6318 12.4199Z" fill="url(#paint0_linear)"/>
<path d="M41.6075 33.6487L36.4268 28.468V28.2153V28.0889L41.6075 22.9082L41.7338 23.0346L47.9254 26.5726C49.6944 27.5835 49.6944 29.2261 47.9254 30.237L41.6075 33.6487Z" fill="url(#paint1_linear)"/>
<path d="M41.7337 33.5219L36.4267 28.2148L20.6318 44.0097C21.2636 44.6415 22.1481 44.6415 23.2854 44.136L41.7337 33.5219Z" fill="url(#paint2_linear)"/>
<path d="M41.7337 22.908L23.2854 12.4203C22.1481 11.7885 21.2636 11.9148 20.6318 12.5466L36.4267 28.2151L41.7337 22.908Z" fill="url(#paint3_linear)"/>
<path opacity="0.2" d="M41.6074 33.3955L23.2854 43.7569C22.2745 44.3887 21.39 44.2624 20.7582 43.7569L20.6318 43.8833L20.7582 44.0096C21.39 44.5151 22.2745 44.6414 23.2854 44.0096L41.6074 33.3955Z" fill="black"/>
<path opacity="0.12" d="M20.6314 43.7573C20.2523 43.3782 20.126 42.7464 20.126 41.9883V42.1146C20.126 42.8728 20.3787 43.5046 20.7578 43.8837V43.7573H20.6314Z" fill="black"/>
<path opacity="0.12" d="M47.9254 29.8575L41.6074 33.3955L41.7338 33.5219L47.9254 29.9839C48.8099 29.4784 49.1889 28.8466 49.1889 28.2148C49.1889 28.8466 48.6835 29.3521 47.9254 29.8575Z" fill="black"/>
<path opacity="0.25" d="M23.2859 12.5464L47.9259 26.5722C48.684 27.0776 49.1895 27.5831 49.1895 28.2149C49.1895 27.5831 48.8104 26.9513 47.9259 26.4458L23.2859 12.42C21.5169 11.4091 20.127 12.2937 20.127 14.3154V14.4418C20.127 12.42 21.5169 11.5355 23.2859 12.5464Z" fill="white"/>
<path d="M93.2424 30.3558C90.2026 30.3558 87.7962 32.7244 87.7962 36.0143C87.7962 39.1725 90.2026 41.6727 93.2424 41.6727C96.2822 41.6727 98.6887 39.3041 98.6887 36.0143C98.6887 32.5928 96.2822 30.3558 93.2424 30.3558ZM93.2424 39.3041C91.5959 39.3041 90.2026 37.8566 90.2026 35.8827C90.2026 33.9088 91.5959 32.4613 93.2424 32.4613C94.889 32.4613 96.2822 33.7772 96.2822 35.8827C96.2822 37.8566 94.889 39.3041 93.2424 39.3041ZM81.4633 30.3558C78.4235 30.3558 76.017 32.7244 76.017 36.0143C76.017 39.1725 78.4235 41.6727 81.4633 41.6727C84.5031 41.6727 86.9096 39.3041 86.9096 36.0143C86.9096 32.5928 84.5031 30.3558 81.4633 30.3558ZM81.4633 39.3041C79.8167 39.3041 78.4235 37.8566 78.4235 35.8827C78.4235 33.9088 79.8167 32.4613 81.4633 32.4613C83.1098 32.4613 84.5031 33.7772 84.5031 35.8827C84.5031 37.8566 83.1098 39.3041 81.4633 39.3041ZM67.4043 32.0665V34.4351H72.8506C72.7239 35.7511 72.2173 36.8038 71.584 37.4618C70.8241 38.2513 69.5575 39.1725 67.4043 39.1725C63.9846 39.1725 61.4514 36.409 61.4514 32.856C61.4514 29.303 64.1112 26.5396 67.4043 26.5396C69.1775 26.5396 70.5707 27.3292 71.584 28.2503L73.2306 26.5396C71.8373 25.2237 70.0641 24.1709 67.531 24.1709C62.9713 24.1709 59.0449 28.1187 59.0449 32.856C59.0449 37.5934 62.9713 41.5411 67.531 41.5411C70.0641 41.5411 71.8373 40.7516 73.3572 39.0409C74.8771 37.4618 75.3837 35.2247 75.3837 33.514C75.3837 32.9876 75.3837 32.4613 75.2571 32.0665H67.4043ZM124.907 33.9088C124.4 32.5929 123.134 30.3558 120.347 30.3558C117.561 30.3558 115.281 32.5928 115.281 36.0143C115.281 39.1725 117.561 41.6727 120.6 41.6727C123.007 41.6727 124.527 40.0936 125.033 39.1725L123.26 37.8566C122.627 38.7777 121.867 39.4357 120.6 39.4357C119.334 39.4357 118.574 38.9093 117.941 37.725L125.16 34.5667L124.907 33.9088ZM117.561 35.7511C117.561 33.6456 119.207 32.4613 120.347 32.4613C121.234 32.4613 122.12 32.9876 122.374 33.6456L117.561 35.7511ZM111.608 41.1464H114.014V24.6973H111.608V41.1464ZM107.808 31.5401C107.175 30.8822 106.161 30.2242 104.895 30.2242C102.235 30.2242 99.702 32.7244 99.702 35.8827C99.702 39.0409 102.108 41.4095 104.895 41.4095C106.161 41.4095 107.175 40.7516 107.681 40.0936H107.808V40.8832C107.808 42.9887 106.668 44.173 104.895 44.173C103.502 44.173 102.488 43.1202 102.235 42.1991L100.209 43.1203C100.842 44.5678 102.362 46.4101 105.022 46.4101C107.808 46.4101 110.088 44.6994 110.088 40.62V30.619H107.808V31.5401ZM105.022 39.3041C103.375 39.3041 101.982 37.8566 101.982 35.8827C101.982 33.9088 103.375 32.4613 105.022 32.4613C106.668 32.4613 107.935 33.9088 107.935 35.8827C107.935 37.8566 106.668 39.3041 105.022 39.3041ZM135.926 24.6973H130.226V41.1464H132.633V34.9615H135.926C138.586 34.9615 141.119 32.9876 141.119 29.8294C141.119 26.6712 138.586 24.6973 135.926 24.6973ZM136.053 32.5929H132.633V26.9344H136.053C137.826 26.9344 138.839 28.5135 138.839 29.6978C138.712 31.1453 137.699 32.5929 136.053 32.5929ZM150.618 30.2242C148.845 30.2242 147.072 31.0137 146.439 32.7244L148.592 33.6456C149.098 32.7244 149.858 32.4613 150.745 32.4613C152.011 32.4613 153.151 33.2508 153.278 34.5667V34.6983C152.898 34.4351 151.885 34.0404 150.872 34.0404C148.592 34.0404 146.312 35.3563 146.312 37.725C146.312 39.962 148.212 41.4095 150.238 41.4095C151.885 41.4095 152.645 40.62 153.278 39.8304H153.405V41.1464H155.685V34.8299C155.431 31.9349 153.278 30.2242 150.618 30.2242ZM150.365 39.3041C149.605 39.3041 148.465 38.9093 148.465 37.8566C148.465 36.5406 149.858 36.1458 150.998 36.1458C152.011 36.1458 152.518 36.409 153.151 36.6722C152.898 38.2513 151.631 39.3041 150.365 39.3041ZM163.664 30.619L161.004 37.725H160.877L158.091 30.619H155.558L159.738 40.62L157.331 46.1469H159.738L166.197 30.619H163.664ZM142.386 41.1464H144.792V24.6973H142.386V41.1464Z" fill="white"/>
<path d="M59.8031 21.6436V19.1165H60.5612C61.193 18.611 61.5721 17.6002 61.5721 16.2102V12.4195H66.6264V19.1165H67.511V21.6436H66.6264V20.001H60.8139V21.6436H59.8031ZM62.3302 16.2102C62.3302 17.3474 62.2039 18.3583 61.6985 19.1165H65.4892V13.4303H62.3302V16.2102Z" fill="white"/>
<path d="M74.9651 18.99C74.207 19.7481 73.3225 20.1272 72.1852 20.1272C71.048 20.1272 70.1635 19.7481 69.4054 18.99C68.6472 18.2318 68.2681 17.3473 68.2681 16.2101C68.2681 15.0729 68.6472 14.1883 69.4054 13.4302C70.1635 12.672 71.048 12.293 72.1852 12.293C73.3225 12.293 74.207 12.672 74.9651 13.4302C75.7233 14.1883 76.1024 15.0729 76.1024 16.2101C76.1024 17.3473 75.7233 18.2318 74.9651 18.99ZM70.1635 18.3582C70.6689 18.8636 71.4271 19.2427 72.1852 19.2427C72.9434 19.2427 73.7015 18.99 74.207 18.3582C74.7124 17.8528 75.0915 17.0946 75.0915 16.2101C75.0915 15.3256 74.8388 14.5674 74.207 14.062C73.7015 13.5566 72.9434 13.1775 72.1852 13.1775C71.4271 13.1775 70.6689 13.4302 70.1635 14.062C69.6581 14.5674 69.279 15.3256 69.279 16.2101C69.279 17.0946 69.5317 17.8528 70.1635 18.3582Z" fill="white"/>
<path d="M81.0303 20.1272C79.8931 20.1272 79.0086 19.7481 78.2505 18.99C77.4923 18.2318 77.1132 17.3473 77.1132 16.2101C77.1132 15.0729 77.4923 14.1883 78.2505 13.4302C79.0086 12.672 79.8931 12.293 81.0303 12.293C82.1676 12.293 83.0521 12.672 83.8102 13.5566L83.1785 14.1883C82.673 13.5566 81.9149 13.1775 81.0303 13.1775C80.1458 13.1775 79.514 13.4302 78.8823 14.062C78.2505 14.5674 77.9977 15.3256 77.9977 16.2101C77.9977 17.0946 78.2505 17.8528 78.8823 18.3582C79.3877 18.8636 80.1458 19.2427 81.0303 19.2427C81.9149 19.2427 82.673 18.8636 83.3048 18.1055L83.9366 18.7373C83.5575 19.1163 83.1784 19.4954 82.673 19.7481C82.1676 20.0008 81.6621 20.1272 81.0303 20.1272Z" fill="white"/>
<path d="M87.9821 20.001H86.9712V13.304H84.8231V12.4195H90.0038V13.304H87.8557V20.001H87.9821Z" fill="white"/>
<path d="M96.7003 12.4195L93.7941 18.8637C93.415 19.7483 92.7832 20.2537 92.025 20.2537C91.7723 20.2537 91.5196 20.2537 91.2669 20.1273L91.5196 19.2428C91.646 19.3692 91.8987 19.3692 92.025 19.3692C92.2778 19.3692 92.4041 19.3692 92.5305 19.2428C92.6568 19.1165 92.7832 18.9901 92.9095 18.7374L93.1623 18.1056L90.6351 12.5458H91.7723L93.6677 16.842L95.4367 12.5458H96.7003V12.4195Z" fill="white"/>
<path d="M97.8366 20.001V12.4195H103.27V20.001H102.259V13.304H98.7211V20.001H97.8366Z" fill="white"/>
<path d="M105.04 20.001V12.4195H106.051V15.7048H109.842V12.4195H110.853V20.001H109.842V16.5893H106.051V20.001H105.04Z" fill="white"/>
<path d="M118.813 18.99C118.055 19.7481 117.17 20.1272 116.033 20.1272C114.896 20.1272 114.011 19.7481 113.253 18.99C112.495 18.2318 112.116 17.3473 112.116 16.2101C112.116 15.0729 112.495 14.1883 113.253 13.4302C114.011 12.672 114.896 12.293 116.033 12.293C117.17 12.293 118.055 12.672 118.813 13.4302C119.571 14.1883 119.95 15.0729 119.95 16.2101C119.824 17.3473 119.445 18.2318 118.813 18.99ZM113.885 18.3582C114.391 18.8636 115.149 19.2427 115.907 19.2427C116.665 19.2427 117.423 18.99 117.929 18.3582C118.434 17.8528 118.813 17.0946 118.813 16.2101C118.813 15.3256 118.56 14.5674 117.929 14.062C117.423 13.5566 116.665 13.1775 115.907 13.1775C115.149 13.1775 114.391 13.4302 113.885 14.062C113.38 14.5674 113.001 15.3256 113.001 16.2101C113.001 17.0946 113.38 17.8528 113.885 18.3582Z" fill="white"/>
<path d="M123.866 12.4195H126.646C127.278 12.4195 127.783 12.6722 128.162 13.0512C128.541 13.4303 128.794 13.9358 128.794 14.5675C128.794 14.9466 128.668 15.1993 128.541 15.5784C128.415 15.8311 128.162 16.0839 127.783 16.2102C128.162 16.3366 128.415 16.5893 128.668 16.842C128.92 17.0947 129.047 17.4738 129.047 17.9792C129.047 18.611 128.794 19.1165 128.415 19.4955C127.909 19.8746 127.404 20.1273 126.772 20.1273H123.866V12.4195ZM124.877 15.7048H126.646C127.025 15.7048 127.278 15.5784 127.53 15.3257C127.783 15.073 127.909 14.8203 127.909 14.5675C127.909 14.3148 127.783 14.0621 127.53 13.8094C127.278 13.5567 127.025 13.4303 126.646 13.4303H124.877V15.7048ZM124.877 19.1165H126.899C127.278 19.1165 127.53 18.9901 127.783 18.7374C128.036 18.4847 128.162 18.232 128.162 17.8529C128.162 17.6002 128.036 17.2211 127.783 16.9684C127.53 16.7156 127.278 16.5893 126.899 16.5893H125.003V19.1165H124.877Z" fill="white"/>
<path d="M93.2424 30.3558C90.2026 30.3558 87.7962 32.7244 87.7962 36.0143C87.7962 39.1725 90.2026 41.6727 93.2424 41.6727C96.2822 41.6727 98.6887 39.3041 98.6887 36.0143C98.6887 32.5928 96.2822 30.3558 93.2424 30.3558ZM93.2424 39.3041C91.5959 39.3041 90.2026 37.8566 90.2026 35.8827C90.2026 33.9088 91.5959 32.4613 93.2424 32.4613C94.889 32.4613 96.2822 33.7772 96.2822 35.8827C96.2822 37.8566 94.889 39.3041 93.2424 39.3041ZM81.4633 30.3558C78.4235 30.3558 76.017 32.7244 76.017 36.0143C76.017 39.1725 78.4235 41.6727 81.4633 41.6727C84.5031 41.6727 86.9096 39.3041 86.9096 36.0143C86.9096 32.5928 84.5031 30.3558 81.4633 30.3558ZM81.4633 39.3041C79.8167 39.3041 78.4235 37.8566 78.4235 35.8827C78.4235 33.9088 79.8167 32.4613 81.4633 32.4613C83.1098 32.4613 84.5031 33.7772 84.5031 35.8827C84.5031 37.8566 83.1098 39.3041 81.4633 39.3041ZM67.4043 32.0665V34.4351H72.8506C72.7239 35.7511 72.2173 36.8038 71.584 37.4618C70.8241 38.2513 69.5575 39.1725 67.4043 39.1725C63.9846 39.1725 61.4514 36.409 61.4514 32.856C61.4514 29.303 64.1112 26.5396 67.4043 26.5396C69.1775 26.5396 70.5707 27.3292 71.584 28.2503L73.2306 26.5396C71.8373 25.2237 70.0641 24.1709 67.531 24.1709C62.9713 24.1709 59.0449 28.1187 59.0449 32.856C59.0449 37.5934 62.9713 41.5411 67.531 41.5411C70.0641 41.5411 71.8373 40.7516 73.3572 39.0409C74.8771 37.4618 75.3837 35.2247 75.3837 33.514C75.3837 32.9876 75.3837 32.4613 75.2571 32.0665H67.4043ZM124.907 33.9088C124.4 32.5929 123.134 30.3558 120.347 30.3558C117.561 30.3558 115.281 32.5928 115.281 36.0143C115.281 39.1725 117.561 41.6727 120.6 41.6727C123.007 41.6727 124.527 40.0936 125.033 39.1725L123.26 37.8566C122.627 38.7777 121.867 39.4357 120.6 39.4357C119.334 39.4357 118.574 38.9093 117.941 37.725L125.16 34.5667L124.907 33.9088ZM117.561 35.7511C117.561 33.6456 119.207 32.4613 120.347 32.4613C121.234 32.4613 122.12 32.9876 122.374 33.6456L117.561 35.7511ZM111.608 41.1464H114.014V24.6973H111.608V41.1464ZM107.808 31.5401C107.175 30.8822 106.161 30.2242 104.895 30.2242C102.235 30.2242 99.702 32.7244 99.702 35.8827C99.702 39.0409 102.108 41.4095 104.895 41.4095C106.161 41.4095 107.175 40.7516 107.681 40.0936H107.808V40.8832C107.808 42.9887 106.668 44.173 104.895 44.173C103.502 44.173 102.488 43.1202 102.235 42.1991L100.209 43.1203C100.842 44.5678 102.362 46.4101 105.022 46.4101C107.808 46.4101 110.088 44.6994 110.088 40.62V30.619H107.808V31.5401ZM105.022 39.3041C103.375 39.3041 101.982 37.8566 101.982 35.8827C101.982 33.9088 103.375 32.4613 105.022 32.4613C106.668 32.4613 107.935 33.9088 107.935 35.8827C107.935 37.8566 106.668 39.3041 105.022 39.3041ZM135.926 24.6973H130.226V41.1464H132.633V34.9615H135.926C138.586 34.9615 141.119 32.9876 141.119 29.8294C141.119 26.6712 138.586 24.6973 135.926 24.6973ZM136.053 32.5929H132.633V26.9344H136.053C137.826 26.9344 138.839 28.5135 138.839 29.6978C138.712 31.1453 137.699 32.5929 136.053 32.5929ZM150.618 30.2242C148.845 30.2242 147.072 31.0137 146.439 32.7244L148.592 33.6456C149.098 32.7244 149.858 32.4613 150.745 32.4613C152.011 32.4613 153.151 33.2508 153.278 34.5667V34.6983C152.898 34.4351 151.885 34.0404 150.872 34.0404C148.592 34.0404 146.312 35.3563 146.312 37.725C146.312 39.962 148.212 41.4095 150.238 41.4095C151.885 41.4095 152.645 40.62 153.278 39.8304H153.405V41.1464H155.685V34.8299C155.431 31.9349 153.278 30.2242 150.618 30.2242ZM150.365 39.3041C149.605 39.3041 148.465 38.9093 148.465 37.8566C148.465 36.5406 149.858 36.1458 150.998 36.1458C152.011 36.1458 152.518 36.409 153.151 36.6722C152.898 38.2513 151.631 39.3041 150.365 39.3041ZM163.664 30.619L161.004 37.725H160.877L158.091 30.619H155.558L159.738 40.62L157.331 46.1469H159.738L166.197 30.619H163.664ZM142.386 41.1464H144.792V24.6973H142.386V41.1464Z" stroke="white" stroke-width="0.2" stroke-miterlimit="10"/>
<path d="M59.8031 21.6436V19.1165H60.5612C61.193 18.611 61.5721 17.6002 61.5721 16.2102V12.4195H66.6264V19.1165H67.511V21.6436H66.6264V20.001H60.8139V21.6436H59.8031ZM62.3302 16.2102C62.3302 17.3474 62.2039 18.3583 61.6985 19.1165H65.4892V13.4303H62.3302V16.2102Z" stroke="white" stroke-width="0.2" stroke-miterlimit="10"/>
<path d="M74.9651 18.99C74.207 19.7481 73.3225 20.1272 72.1852 20.1272C71.048 20.1272 70.1635 19.7481 69.4054 18.99C68.6472 18.2318 68.2681 17.3473 68.2681 16.2101C68.2681 15.0729 68.6472 14.1883 69.4054 13.4302C70.1635 12.672 71.048 12.293 72.1852 12.293C73.3225 12.293 74.207 12.672 74.9651 13.4302C75.7233 14.1883 76.1024 15.0729 76.1024 16.2101C76.1024 17.3473 75.7233 18.2318 74.9651 18.99ZM70.1635 18.3582C70.6689 18.8636 71.4271 19.2427 72.1852 19.2427C72.9434 19.2427 73.7015 18.99 74.207 18.3582C74.7124 17.8528 75.0915 17.0946 75.0915 16.2101C75.0915 15.3256 74.8388 14.5674 74.207 14.062C73.7015 13.5566 72.9434 13.1775 72.1852 13.1775C71.4271 13.1775 70.6689 13.4302 70.1635 14.062C69.6581 14.5674 69.279 15.3256 69.279 16.2101C69.279 17.0946 69.5317 17.8528 70.1635 18.3582Z" stroke="white" stroke-width="0.2" stroke-miterlimit="10"/>
<path d="M81.0303 20.1272C79.8931 20.1272 79.0086 19.7481 78.2505 18.99C77.4923 18.2318 77.1132 17.3473 77.1132 16.2101C77.1132 15.0729 77.4923 14.1883 78.2505 13.4302C79.0086 12.672 79.8931 12.293 81.0303 12.293C82.1676 12.293 83.0521 12.672 83.8102 13.5566L83.1785 14.1883C82.673 13.5566 81.9149 13.1775 81.0303 13.1775C80.1458 13.1775 79.514 13.4302 78.8823 14.062C78.2505 14.5674 77.9977 15.3256 77.9977 16.2101C77.9977 17.0946 78.2505 17.8528 78.8823 18.3582C79.3877 18.8636 80.1458 19.2427 81.0303 19.2427C81.9149 19.2427 82.673 18.8636 83.3048 18.1055L83.9366 18.7373C83.5575 19.1163 83.1784 19.4954 82.673 19.7481C82.1676 20.0008 81.6621 20.1272 81.0303 20.1272Z" stroke="white" stroke-width="0.2" stroke-miterlimit="10"/>
<path d="M87.9821 20.001H86.9712V13.304H84.8231V12.4195H90.0038V13.304H87.8557V20.001H87.9821Z" stroke="white" stroke-width="0.2" stroke-miterlimit="10"/>
<path d="M96.7003 12.4195L93.7941 18.8637C93.415 19.7483 92.7832 20.2537 92.025 20.2537C91.7723 20.2537 91.5196 20.2537 91.2669 20.1273L91.5196 19.2428C91.646 19.3692 91.8987 19.3692 92.025 19.3692C92.2778 19.3692 92.4041 19.3692 92.5305 19.2428C92.6568 19.1165 92.7832 18.9901 92.9095 18.7374L93.1623 18.1056L90.6351 12.5458H91.7723L93.6677 16.842L95.4367 12.5458H96.7003V12.4195Z" stroke="white" stroke-width="0.2" stroke-miterlimit="10"/>
<path d="M97.8366 20.001V12.4195H103.27V20.001H102.259V13.304H98.7211V20.001H97.8366Z" stroke="white" stroke-width="0.2" stroke-miterlimit="10"/>
<path d="M105.04 20.001V12.4195H106.051V15.7048H109.842V12.4195H110.853V20.001H109.842V16.5893H106.051V20.001H105.04Z" stroke="white" stroke-width="0.2" stroke-miterlimit="10"/>
<path d="M118.813 18.99C118.055 19.7481 117.17 20.1272 116.033 20.1272C114.896 20.1272 114.011 19.7481 113.253 18.99C112.495 18.2318 112.116 17.3473 112.116 16.2101C112.116 15.0729 112.495 14.1883 113.253 13.4302C114.011 12.672 114.896 12.293 116.033 12.293C117.17 12.293 118.055 12.672 118.813 13.4302C119.571 14.1883 119.95 15.0729 119.95 16.2101C119.824 17.3473 119.445 18.2318 118.813 18.99ZM113.885 18.3582C114.391 18.8636 115.149 19.2427 115.907 19.2427C116.665 19.2427 117.423 18.99 117.929 18.3582C118.434 17.8528 118.813 17.0946 118.813 16.2101C118.813 15.3256 118.56 14.5674 117.929 14.062C117.423 13.5566 116.665 13.1775 115.907 13.1775C115.149 13.1775 114.391 13.4302 113.885 14.062C113.38 14.5674 113.001 15.3256 113.001 16.2101C113.001 17.0946 113.38 17.8528 113.885 18.3582Z" stroke="white" stroke-width="0.2" stroke-miterlimit="10"/>
<path d="M123.866 12.4195H126.646C127.278 12.4195 127.783 12.6722 128.162 13.0512C128.541 13.4303 128.794 13.9358 128.794 14.5675C128.794 14.9466 128.668 15.1993 128.541 15.5784C128.415 15.8311 128.162 16.0839 127.783 16.2102C128.162 16.3366 128.415 16.5893 128.668 16.842C128.92 17.0947 129.047 17.4738 129.047 17.9792C129.047 18.611 128.794 19.1165 128.415 19.4955C127.909 19.8746 127.404 20.1273 126.772 20.1273H123.866V12.4195ZM124.877 15.7048H126.646C127.025 15.7048 127.278 15.5784 127.53 15.3257C127.783 15.073 127.909 14.8203 127.909 14.5675C127.909 14.3148 127.783 14.0621 127.53 13.8094C127.278 13.5567 127.025 13.4303 126.646 13.4303H124.877V15.7048ZM124.877 19.1165H126.899C127.278 19.1165 127.53 18.9901 127.783 18.7374C128.036 18.4847 128.162 18.232 128.162 17.8529C128.162 17.6002 128.036 17.2211 127.783 16.9684C127.53 16.7156 127.278 16.5893 126.899 16.5893H125.003V19.1165H124.877Z" stroke="white" stroke-width="0.2" stroke-miterlimit="10"/>
<defs>
<linearGradient id="paint0_linear" x1="35.0363" y1="13.9485" x2="13.8303" y2="35.1545" gradientUnits="userSpaceOnUse">
<stop stop-color="#00A0FF"/>
<stop offset="0.00657445" stop-color="#00A1FF"/>
<stop offset="0.2601" stop-color="#00BEFF"/>
<stop offset="0.5122" stop-color="#00D2FF"/>
<stop offset="0.7604" stop-color="#00DFFF"/>
<stop offset="1" stop-color="#00E3FF"/>
</linearGradient>
<linearGradient id="paint1_linear" x1="50.2433" y1="28.217" x2="19.6684" y2="28.217" gradientUnits="userSpaceOnUse">
<stop stop-color="#FFE000"/>
<stop offset="0.4087" stop-color="#FFBD00"/>
<stop offset="0.7754" stop-color="#FFA500"/>
<stop offset="1" stop-color="#FF9C00"/>
</linearGradient>
<linearGradient id="paint2_linear" x1="38.8616" y1="31.1162" x2="10.1045" y2="59.8733" gradientUnits="userSpaceOnUse">
<stop stop-color="#FF3A44"/>
<stop offset="1" stop-color="#C31162"/>
</linearGradient>
<linearGradient id="paint3_linear" x1="16.7113" y1="3.166" x2="29.5526" y2="16.0072" gradientUnits="userSpaceOnUse">
<stop stop-color="#32A071"/>
<stop offset="0.0685" stop-color="#2DA771"/>
<stop offset="0.4762" stop-color="#15CF74"/>
<stop offset="0.8009" stop-color="#06E775"/>
<stop offset="1" stop-color="#00F076"/>
</linearGradient>
</defs>
</svg>
