<svg width="186" height="56" viewBox="0 0 186 56" fill="none" xmlns="http://www.w3.org/2000/svg">
<rect width="186" height="56" rx="28" fill="#222222"/>
<path d="M42.9776 27.4714C42.9776 23.4955 46.2435 21.6496 46.3855 21.5076C44.5396 18.8097 41.6997 18.5257 40.7057 18.3837C38.2918 18.0997 36.0199 19.8037 34.7419 19.8037C33.4639 19.8037 31.618 18.3837 29.6301 18.3837C27.0742 18.3837 24.6603 19.9457 23.2403 22.2176C20.5424 26.9034 22.5303 34.0032 25.2282 37.837C26.5062 39.683 28.0681 41.8129 30.0561 41.8129C32.044 41.6709 32.754 40.5349 35.1679 40.5349C37.5818 40.5349 38.1498 41.8129 40.2797 41.8129C42.4096 41.8129 43.6876 39.967 44.9655 37.979C46.5275 35.8491 47.0955 33.7192 47.0955 33.5772C47.0955 33.7192 42.9776 32.1572 42.9776 27.4714Z" fill="white"/>
<path d="M39.003 15.9698C39.997 14.6919 40.8489 12.8459 40.5649 11C39.003 11 37.1571 11.994 36.0211 13.4139C35.0271 14.5499 34.1752 16.3958 34.4592 18.2417C36.1631 18.2417 38.009 17.2478 39.003 15.9698Z" fill="white"/>
<path d="M67.8273 37.1271H61.1535L59.5916 41.9549H56.7517L63.1414 24.3476H65.9813L72.3711 41.9549H69.5312L67.8273 37.1271ZM61.8635 34.9972H67.2593L64.5614 27.1875H64.4194L61.8635 34.9972Z" fill="white"/>
<path d="M86.1435 35.5654C86.1435 39.5412 84.0136 42.0972 80.7477 42.0972C78.9018 42.0972 77.4818 41.2452 76.7718 39.8252V46.215H74.0739V29.1756H76.6298V31.3055C77.3398 29.8856 78.9018 29.0336 80.7477 29.0336C83.8716 28.8916 86.1435 31.5895 86.1435 35.5654ZM83.3036 35.5654C83.3036 33.0095 82.0257 31.3055 79.8957 31.3055C77.9078 31.3055 76.4879 33.0095 76.4879 35.5654C76.4879 38.1213 77.9078 39.8252 79.8957 39.8252C82.0257 39.8252 83.3036 38.1213 83.3036 35.5654Z" fill="white"/>
<path d="M100.202 35.5654C100.202 39.5412 98.0717 42.0972 94.8058 42.0972C92.9598 42.0972 91.5399 41.2452 90.8299 39.8252V46.215H88.132V29.1756H90.6879V31.3055C91.3979 29.8856 92.9598 29.0336 94.8058 29.0336C98.0717 28.8916 100.202 31.5895 100.202 35.5654ZM97.5037 35.5654C97.5037 33.0095 96.2257 31.3055 94.0958 31.3055C92.1079 31.3055 90.6879 33.0095 90.6879 35.5654C90.6879 38.1213 92.1079 39.8252 94.0958 39.8252C96.2257 39.8252 97.5037 38.1213 97.5037 35.5654Z" fill="white"/>
<path d="M109.574 36.9852C109.716 38.6891 111.42 39.8251 113.834 39.8251C116.106 39.8251 117.668 38.6891 117.668 37.1272C117.668 35.7072 116.674 34.9973 114.402 34.4293L112.13 33.8613C108.864 33.0093 107.444 31.5894 107.444 29.1755C107.444 26.1936 110.142 24.0636 113.834 24.0636C117.526 24.0636 120.081 26.1936 120.223 29.1755H117.526C117.384 27.4715 115.964 26.3356 113.834 26.3356C111.704 26.3356 110.284 27.4715 110.284 29.0335C110.284 30.3114 111.278 31.0214 113.55 31.5894L115.538 32.0154C119.087 32.8673 120.649 34.2873 120.649 36.8432C120.649 40.1091 117.952 42.239 113.834 42.239C109.858 42.239 107.302 40.2511 107.16 36.9852H109.574Z" fill="white"/>
<path d="M126.044 26.0514V29.0333H128.458V31.1632H126.044V38.263C126.044 39.399 126.47 39.8249 127.606 39.8249C127.89 39.8249 128.316 39.8249 128.458 39.8249V41.9549C128.174 42.0969 127.606 42.0969 127.038 42.0969C124.482 42.0969 123.488 41.1029 123.488 38.689V31.3052H121.642V29.1753H123.488V26.1934H126.044V26.0514Z" fill="white"/>
<path d="M130.021 35.5652C130.021 31.5894 132.434 29.0335 136.126 29.0335C139.818 29.0335 142.232 31.5894 142.232 35.5652C142.232 39.6831 139.818 42.097 136.126 42.097C132.292 42.097 130.021 39.5411 130.021 35.5652ZM139.534 35.5652C139.534 32.7253 138.256 31.1634 136.126 31.1634C133.996 31.1634 132.718 32.7253 132.718 35.5652C132.718 38.4051 133.996 39.9671 136.126 39.9671C138.256 39.9671 139.534 38.2631 139.534 35.5652Z" fill="white"/>
<path d="M144.361 29.0335H146.917V31.3054C147.343 29.8854 148.479 29.0335 150.041 29.0335C150.467 29.0335 150.751 29.0335 150.893 29.1755V31.5894C150.751 31.4474 150.183 31.4474 149.757 31.4474C148.053 31.4474 147.059 32.5833 147.059 34.4293V42.097H144.361V29.0335Z" fill="white"/>
<path d="M163.105 38.121C162.679 40.3929 160.407 42.0969 157.567 42.0969C153.875 42.0969 151.461 39.541 151.461 35.5651C151.461 31.5892 153.733 28.8913 157.425 28.8913C160.975 28.8913 163.247 31.3052 163.247 35.2811V36.1331H154.159V36.2751C154.159 38.405 155.579 39.9669 157.567 39.9669C158.987 39.9669 160.123 39.257 160.549 38.121H163.105ZM154.159 34.2871H160.549C160.549 32.2992 159.271 31.0213 157.425 31.0213C155.579 31.0213 154.301 32.4412 154.159 34.2871Z" fill="white"/>
<path d="M59.8762 16.1271H61.0122C62.0062 16.1271 62.5741 15.5591 62.5741 14.7071C62.5741 13.8551 62.0062 13.4292 61.0122 13.4292C60.0182 13.4292 59.3083 13.9971 59.3083 14.7071H58.0303C58.1723 13.1452 59.3083 12.2932 61.0122 12.2932C62.7161 12.2932 63.8521 13.2872 63.8521 14.5651C63.8521 15.5591 63.2841 16.2691 62.2902 16.5531V16.695C63.4261 16.837 64.1361 17.547 64.1361 18.683C64.1361 20.1029 62.7161 21.2389 61.0122 21.2389C59.1663 21.2389 57.8883 20.2449 57.8883 18.683H59.1663C59.3083 19.535 60.0182 19.9609 61.1542 19.9609C62.2902 19.9609 63.0001 19.393 63.0001 18.541C63.0001 17.689 62.2902 17.121 61.1542 17.121H60.0182V16.1271H59.8762Z" fill="white"/>
<path d="M65.6985 19.109C65.6985 17.9731 66.5505 17.2631 68.1124 17.2631L69.8163 17.1211V16.5531C69.8163 15.8432 69.3904 15.5592 68.5384 15.5592C67.8284 15.5592 67.4024 15.8432 67.2604 16.2691H65.9825C66.1245 15.1332 67.1184 14.4232 68.5384 14.4232C70.1003 14.4232 71.0943 15.2752 71.0943 16.5531V20.955H69.8163V20.103H69.6743C69.2484 20.813 68.5384 21.097 67.6864 21.097C66.6925 21.097 65.6985 20.245 65.6985 19.109ZM69.8163 18.5411V17.9731L68.2544 18.1151C67.4024 18.1151 66.9764 18.5411 66.9764 18.9671C66.9764 19.535 67.5444 19.819 68.1124 19.819C69.1064 19.961 69.8163 19.393 69.8163 18.5411Z" fill="white"/>
<path d="M74.5033 15.5593V20.9551H73.2253V14.5653H77.4852V15.5593H74.5033Z" fill="white"/>
<path d="M85.0109 17.689C85.0109 19.6769 84.017 20.9548 82.313 20.9548C81.461 20.9548 80.6091 20.5289 80.3251 19.8189H80.1831V22.9428H78.9051V14.4231H80.1831V15.417H80.3251C80.7511 14.7071 81.461 14.2811 82.313 14.2811C84.017 14.4231 85.0109 15.701 85.0109 17.689ZM83.733 17.689C83.733 16.269 83.023 15.559 82.029 15.559C81.0351 15.559 80.3251 16.411 80.3251 17.689C80.3251 18.9669 81.0351 19.8189 82.029 19.8189C83.165 19.9609 83.733 19.1089 83.733 17.689Z" fill="white"/>
<path d="M86.7143 23.227V22.0911C86.8563 22.0911 86.9983 22.0911 87.1403 22.0911C87.7083 22.0911 88.1343 21.8071 88.2763 21.2391L88.4182 20.9551L86.1463 14.5653H87.5663L89.1282 19.6772H89.2702L90.8322 14.5653H92.1101L89.6962 21.2391C89.1282 22.8011 88.5602 23.227 87.2823 23.227C87.1403 23.227 86.8563 23.227 86.7143 23.227Z" fill="white"/>
<path d="M93.1046 19.109H94.3826C94.5246 19.677 95.0926 19.961 95.8026 19.961C96.6545 19.961 97.2225 19.535 97.2225 18.9671C97.2225 18.3991 96.7965 18.1151 95.8026 18.1151H94.8086V17.1211H95.8026C96.5125 17.1211 96.9385 16.8371 96.9385 16.2691C96.9385 15.8432 96.5125 15.4172 95.8026 15.4172C95.0926 15.4172 94.5246 15.7012 94.5246 16.2691H93.2466C93.3886 15.1332 94.3826 14.4232 95.8026 14.4232C97.3645 14.4232 98.2165 15.1332 98.2165 16.1272C98.2165 16.8371 97.7905 17.2631 97.2225 17.4051V17.5471C98.0745 17.6891 98.5005 18.2571 98.5005 18.9671C98.5005 20.245 97.5065 20.955 95.9445 20.955C94.3826 21.097 93.2466 20.387 93.1046 19.109Z" fill="white"/>
<path d="M100.204 20.9551V14.5653H101.482V18.9672L104.464 14.5653H105.742V20.9551H104.464V16.5533H104.322L101.34 20.9551H100.204Z" fill="white"/>
<path d="M112.558 15.5593H110.57V20.9551H109.292V15.5593H107.304V14.5653H112.558V15.5593Z" fill="white"/>
<path d="M119.372 19.251C119.088 20.387 118.094 21.097 116.532 21.097C114.686 21.097 113.55 19.819 113.55 17.8311C113.55 15.8432 114.686 14.4232 116.532 14.4232C118.378 14.4232 119.372 15.7012 119.372 17.6891V18.1151H114.828C114.828 19.251 115.538 19.961 116.532 19.961C117.242 19.961 117.81 19.677 118.094 19.251H119.372ZM114.97 17.1211H118.236C118.236 16.1272 117.526 15.4172 116.674 15.4172C115.68 15.5592 114.97 16.1272 114.97 17.1211Z" fill="white"/>
<path d="M127.608 14.5653C128.886 14.5653 129.596 15.1333 129.596 16.1273C129.596 16.8373 129.17 17.4052 128.46 17.5472V17.6892C129.312 17.8312 129.88 18.3992 129.88 19.1092C129.88 20.2451 129.028 20.9551 127.608 20.9551H124.626V14.5653H127.608ZM126.046 17.1213H127.324C128.034 17.1213 128.46 16.8373 128.46 16.2693C128.46 15.7013 128.176 15.4173 127.466 15.4173H126.046V17.1213ZM126.046 19.9612H127.608C128.318 19.9612 128.744 19.6772 128.744 18.9672C128.744 18.2572 128.318 17.9732 127.466 17.9732H126.046V19.9612Z" fill="white"/>
</svg>
