<svg width="127" height="130" viewBox="0 0 127 130" fill="none" xmlns="http://www.w3.org/2000/svg">
<line x1="79.5743" y1="14.6053" x2="48.6357" y2="115.516" stroke="#10B5DC" stroke-width="4"/>
<line x1="118.139" y1="54.1265" x2="10.6096" y2="77.555" stroke="#10B5DC" stroke-width="4"/>
<line y1="-2" x2="110.052" y2="-2" transform="matrix(0.689847 0.723956 0.723956 -0.689847 25.9883 24.0503)" stroke="#10B5DC" stroke-width="4"/>
<line x1="87.3957" y1="91.1353" x2="108.124" y2="85.4158" stroke="#10B5DC" stroke-width="4"/>
<line y1="-2" x2="21.5025" y2="-2" transform="matrix(0.281065 -0.959689 -0.959689 -0.281065 81.2734 110.062)" stroke="#10B5DC" stroke-width="4"/>
<line y1="-2" x2="21.5025" y2="-2" transform="matrix(-0.64923 -0.760592 -0.760592 0.64923 28.0117 74.6934)" stroke="#10B5DC" stroke-width="4"/>
<line x1="22.0895" y1="91.8897" x2="28.6509" y2="71.4127" stroke="#10B5DC" stroke-width="4"/>
<line x1="98.0758" y1="60.0621" x2="103.865" y2="39.3537" stroke="#10B5DC" stroke-width="4"/>
<line y1="-2" x2="21.5025" y2="-2" transform="matrix(-0.677265 -0.735739 -0.735739 0.677265 111.135 75.0657)" stroke="#10B5DC" stroke-width="4"/>
<line y1="-2" x2="21.5025" y2="-2" transform="matrix(0.316817 -0.948487 -0.948487 -0.316817 36.6074 41.1646)" stroke="#10B5DC" stroke-width="4"/>
<line x1="18.8219" y1="44.9578" x2="39.7494" y2="40.0187" stroke="#10B5DC" stroke-width="4"/>
<line x1="35.4336" y1="71.7941" x2="43.6516" y2="44.9898" stroke="#10B5DC" stroke-width="4"/>
<line x1="55.4698" y1="92.6858" x2="36.3656" y2="72.1666" stroke="#10B5DC" stroke-width="4"/>
<line y1="-2" x2="28.0358" y2="-2" transform="matrix(0.293127 -0.956074 -0.956074 -0.293127 81.0566 85.7817)" stroke="#10B5DC" stroke-width="4"/>
<line y1="-2" x2="28.0358" y2="-2" transform="matrix(0.974547 -0.224181 -0.224181 -0.974547 54.2168 90.49)" stroke="#10B5DC" stroke-width="4"/>
<line x1="72.8991" y1="38.5307" x2="43.3208" y2="44.9865" stroke="#10B5DC" stroke-width="4"/>
<line y1="-2" x2="30.2747" y2="-2" transform="matrix(0.689582 0.724208 0.724208 -0.689582 72.4727 36.5767)" stroke="#10B5DC" stroke-width="4"/>
<line x1="74.6643" y1="34.319" x2="59.6252" y2="18.9508" stroke="#10B5DC" stroke-width="4"/>
<line y1="-2" x2="21.5025" y2="-2" transform="matrix(-0.975801 0.218659 0.218659 0.975801 94.1855 30.5112)" stroke="#10B5DC" stroke-width="4"/>
<line y1="-2" x2="21.5025" y2="-2" transform="matrix(-0.979822 0.199872 0.199872 0.979822 55.498 100.099)" stroke="#10B5DC" stroke-width="4"/>
<line x1="67.6748" y1="113.605" x2="52.9337" y2="97.9512" stroke="#10B5DC" stroke-width="4"/>
<circle cx="56.7038" cy="31.7424" r="2.9475" transform="rotate(17.0453 56.7038 31.7424)" stroke="#10B5DC" stroke-width="4"/>
<circle cx="89.8151" cy="41.894" r="2.9475" transform="rotate(17.0453 89.8151 41.894)" stroke="#10B5DC" stroke-width="4"/>
<circle cx="38.817" cy="90.0811" r="2.9475" transform="rotate(17.0453 38.817 90.0811)" stroke="#10B5DC" stroke-width="4"/>
<circle cx="71.9284" cy="100.233" r="2.9475" transform="rotate(17.0453 71.9284 100.233)" stroke="#10B5DC" stroke-width="4"/>
<circle cx="97.9752" cy="77.1694" r="2.9475" transform="rotate(17.0453 97.9752 77.1694)" stroke="#10B5DC" stroke-width="4"/>
<circle cx="28.5983" cy="55.8992" r="2.9475" transform="rotate(17.0453 28.5983 55.8992)" stroke="#10B5DC" stroke-width="4"/>
</svg>
