<svg width="141" height="141" viewBox="0 0 141 141" fill="none" xmlns="http://www.w3.org/2000/svg">
<path d="M115.896 51.4768L77.6874 63.9666L95.8996 28.1852C96.8241 26.386 96.1033 24.0917 94.2535 23.1939C92.4541 22.2705 90.1588 22.9922 89.2599 24.8418L71.0476 60.6231L58.6206 22.4059C58.0027 20.4395 55.8738 19.3666 53.9321 20.0355C51.9647 20.654 50.8906 22.7826 51.5589 24.7235L63.9859 62.9407L28.2013 44.7492C26.4019 43.8257 24.1066 44.5474 23.2077 46.397C22.2833 48.1963 23.0041 50.4905 24.8539 51.3883L60.6386 69.5798L22.4043 82.0192C20.437 82.6377 19.3628 84.7663 20.0311 86.7072C20.649 88.6737 22.7779 89.7465 24.7196 89.0776L62.9284 76.5878L44.716 112.369C43.7915 114.168 44.5125 116.463 46.3623 117.36C47.3 117.835 48.2858 117.904 49.1935 117.57C50.1268 117.286 50.8813 116.65 51.3559 115.713L69.5681 79.9313L81.9952 118.148C82.6131 120.115 84.7418 121.188 86.6836 120.519C88.6509 119.9 89.725 117.772 89.0568 115.831L76.6297 77.6138L112.414 95.8052C113.352 96.2793 114.338 96.349 115.246 96.0149C116.179 95.7312 116.933 95.095 117.408 94.1574C118.333 92.3581 117.612 90.064 115.762 89.1661L79.977 70.9747L118.211 58.5352C120.179 57.9167 121.253 55.7881 120.585 53.8473C119.916 51.9064 117.863 50.8582 115.896 51.4768Z" fill="#E63312"/>
</svg>
