<svg width="142" height="137" viewBox="0 0 142 137" fill="none" xmlns="http://www.w3.org/2000/svg">
<g opacity="0.8">
<path fill-rule="evenodd" clip-rule="evenodd" d="M34.5028 34.5762C36.0729 34.2088 37.6435 35.1838 38.0109 36.7539L40.067 45.5416C40.4344 47.1117 39.4594 48.6823 37.8894 49.0497C36.3193 49.417 34.7487 48.4421 34.3813 46.872L32.3252 38.0842C31.9578 36.5141 32.9328 34.9435 34.5028 34.5762Z" fill="#10B5DC"/>
<path fill-rule="evenodd" clip-rule="evenodd" d="M37.9738 47.7276C37.6064 46.1576 36.0358 45.1826 34.4657 45.5499L25.678 47.6061C24.1079 47.9735 23.1329 49.5441 23.5003 51.1141C23.8676 52.6842 25.4382 53.6592 27.0083 53.2918L35.7961 51.2357C37.3661 50.8683 38.3411 49.2977 37.9738 47.7276Z" fill="#10B5DC"/>
<path fill-rule="evenodd" clip-rule="evenodd" d="M82.0259 20.0804C83.1291 21.2565 83.0701 23.1041 81.894 24.2073L75.3117 30.3819C74.1357 31.4851 72.288 31.426 71.1848 30.25C70.0816 29.0739 70.1407 27.2263 71.3167 26.1231L77.8991 19.9485C79.0751 18.8453 80.9228 18.9044 82.0259 20.0804Z" fill="#10B5DC"/>
<path fill-rule="evenodd" clip-rule="evenodd" d="M72.3726 29.6622C73.5486 28.559 73.6076 26.7113 72.5045 25.5353L66.3299 18.9529C65.2267 17.7769 63.379 17.7178 62.203 18.821C61.027 19.9242 60.9679 21.7719 62.0711 22.9479L68.2457 29.5302C69.3488 30.7063 71.1965 30.7653 72.3726 29.6622Z" fill="#10B5DC"/>
<path fill-rule="evenodd" clip-rule="evenodd" d="M77.71 81.3552C85.3861 77.2446 88.2765 67.6897 84.1659 60.0137C80.0554 52.3377 70.5005 49.4472 62.8244 53.5578C55.1484 57.6683 52.258 67.2232 56.3685 74.8993C60.4791 82.5753 70.034 85.4657 77.71 81.3552ZM80.4666 86.5028C90.9856 80.8699 94.9466 67.7761 89.3136 57.2571C83.6806 46.7381 70.5869 42.7772 60.0678 48.4101C49.5488 54.0431 45.5879 67.1368 51.2209 77.6559C56.8538 88.1749 69.9476 92.1358 80.4666 86.5028Z" fill="#10B5DC"/>
<path fill-rule="evenodd" clip-rule="evenodd" d="M22.9447 94.1207C22.1835 92.6992 22.7188 90.9298 24.1402 90.1686L50.9081 75.8343C52.3296 75.0731 54.099 75.6084 54.8602 77.0299C55.6214 78.4513 55.0862 80.2208 53.6647 80.982L26.8968 95.3162C25.4753 96.0775 23.7059 95.5422 22.9447 94.1207Z" fill="#10B5DC"/>
<path fill-rule="evenodd" clip-rule="evenodd" d="M118.692 42.8488C119.453 44.2703 118.918 46.0397 117.496 46.8009L90.7286 61.1352C89.3071 61.8964 87.5377 61.3611 86.7765 59.9396C86.0153 58.5181 86.5505 56.7487 87.972 55.9875L114.74 41.6532C116.161 40.892 117.931 41.4273 118.692 42.8488Z" fill="#10B5DC"/>
<path fill-rule="evenodd" clip-rule="evenodd" d="M23.2953 82.9801C23.7621 81.4367 25.3918 80.564 26.9352 81.0309L35.5737 83.6441C37.1171 84.111 37.9898 85.7407 37.5229 87.2841C37.056 88.8275 35.4264 89.7002 33.883 89.2333L25.2445 86.6201C23.7011 86.1532 22.8284 84.5235 23.2953 82.9801Z" fill="#10B5DC"/>
<path fill-rule="evenodd" clip-rule="evenodd" d="M118.341 53.9894C117.875 55.5328 116.245 56.4054 114.702 55.9386L106.063 53.3254C104.52 52.8585 103.647 51.2288 104.114 49.6854C104.581 48.142 106.21 47.2693 107.754 47.7362L116.392 50.3494C117.936 50.8163 118.808 52.446 118.341 53.9894Z" fill="#10B5DC"/>
<path fill-rule="evenodd" clip-rule="evenodd" d="M36.4215 86.5506C34.8781 86.0837 33.2485 86.9564 32.7816 88.4998L30.1684 97.1383C29.7015 98.6817 30.5742 100.311 32.1176 100.778C33.661 101.245 35.2907 100.372 35.7575 98.829L38.3707 90.1905C38.8376 88.6471 37.9649 87.0175 36.4215 86.5506Z" fill="#10B5DC"/>
<path fill-rule="evenodd" clip-rule="evenodd" d="M105.217 50.4198C106.761 50.8867 108.39 50.014 108.857 48.4706L111.47 39.8321C111.937 38.2887 111.064 36.659 109.521 36.1921C107.978 35.7252 106.348 36.5979 105.881 38.1413L103.268 46.7798C102.801 48.3232 103.674 49.9529 105.217 50.4198Z" fill="#10B5DC"/>
<path fill-rule="evenodd" clip-rule="evenodd" d="M48.0414 79.7125C49.5848 80.1794 50.4575 81.809 49.9906 83.3524L44.0299 103.057C43.563 104.6 41.9333 105.473 40.3899 105.006C38.8465 104.539 37.9738 102.91 38.4407 101.366L44.4014 81.6617C44.8683 80.1183 46.498 79.2456 48.0414 79.7125Z" fill="#10B5DC"/>
<path fill-rule="evenodd" clip-rule="evenodd" d="M93.5973 57.2576C92.0539 56.7907 91.1812 55.1611 91.6481 53.6177L97.6088 33.9132C98.0757 32.3698 99.7054 31.4971 101.249 31.964C102.792 32.4309 103.665 34.0605 103.198 35.6039L97.2373 55.3084C96.7704 56.8518 95.1407 57.7245 93.5973 57.2576Z" fill="#10B5DC"/>
<path fill-rule="evenodd" clip-rule="evenodd" d="M48.848 81.2204C49.3149 79.677 48.4422 78.0473 46.8988 77.5804L27.1943 71.6197C25.6509 71.1528 24.0213 72.0255 23.5544 73.5689C23.0875 75.1123 23.9602 76.742 25.5036 77.2089L45.208 83.1696C46.7514 83.6364 48.3811 82.7638 48.848 81.2204Z" fill="#10B5DC"/>
<path fill-rule="evenodd" clip-rule="evenodd" d="M92.7887 55.7505C92.3218 57.2939 93.1945 58.9235 94.7379 59.3904L114.442 65.3511C115.986 65.818 117.615 64.9453 118.082 63.4019C118.549 61.8585 117.677 60.2289 116.133 59.762L96.4287 53.8013C94.8853 53.3344 93.2556 54.2071 92.7887 55.7505Z" fill="#10B5DC"/>
<path fill-rule="evenodd" clip-rule="evenodd" d="M24.6808 39.8437C25.5313 38.4737 27.3313 38.0526 28.7013 38.903L54.499 54.9175C55.869 55.768 56.2902 57.568 55.4397 58.938C54.5893 60.3079 52.7893 60.7291 51.4193 59.8786L25.6215 43.8641C24.2516 43.0137 23.8304 41.2137 24.6808 39.8437Z" fill="#10B5DC"/>
<path fill-rule="evenodd" clip-rule="evenodd" d="M116.958 97.1266C116.107 98.4966 114.307 98.9178 112.937 98.0673L87.1396 82.0528C85.7697 81.2024 85.3485 79.4024 86.1989 78.0324C87.0494 76.6624 88.8494 76.2412 90.2194 77.0917L116.017 93.1062C117.387 93.9567 117.808 95.7566 116.958 97.1266Z" fill="#10B5DC"/>
<path fill-rule="evenodd" clip-rule="evenodd" d="M107.134 102.393C105.564 102.761 103.993 101.786 103.626 100.216L101.57 91.4278C101.202 89.8578 102.177 88.2872 103.747 87.9198C105.317 87.5524 106.888 88.5274 107.255 90.0975L109.312 98.8853C109.679 100.455 108.704 102.026 107.134 102.393Z" fill="#10B5DC"/>
<path fill-rule="evenodd" clip-rule="evenodd" d="M103.663 89.2419C104.03 90.8119 105.601 91.7869 107.171 91.4195L115.959 89.3634C117.529 88.996 118.504 87.4254 118.136 85.8553C117.769 84.2853 116.198 83.3103 114.628 83.6777L105.841 85.7338C104.271 86.1012 103.296 87.6718 103.663 89.2419Z" fill="#10B5DC"/>
<path fill-rule="evenodd" clip-rule="evenodd" d="M49.7059 54.372C50.0733 55.9421 49.0983 57.5127 47.5282 57.88L27.4833 62.5701C25.9132 62.9375 24.3426 61.9625 23.9753 60.3924C23.6079 58.8224 24.5829 57.2518 26.153 56.8844L46.1979 52.1943C47.768 51.8269 49.3386 52.8019 49.7059 54.372Z" fill="#10B5DC"/>
<path fill-rule="evenodd" clip-rule="evenodd" d="M91.9308 82.5975C91.5634 81.0274 92.5384 79.4568 94.1085 79.0895L114.153 74.3994C115.723 74.032 117.294 75.007 117.661 76.577C118.029 78.1471 117.054 79.7177 115.484 80.0851L95.4388 84.7752C93.8688 85.1426 92.2982 84.1676 91.9308 82.5975Z" fill="#10B5DC"/>
<path fill-rule="evenodd" clip-rule="evenodd" d="M48.8056 55.8253C50.3756 55.458 51.3506 53.8874 50.9833 52.3173L46.2931 32.2724C45.9258 30.7023 44.3552 29.7273 42.7851 30.0947C41.215 30.4621 40.2401 32.0327 40.6074 33.6027L45.2975 53.6476C45.6649 55.2177 47.2355 56.1927 48.8056 55.8253Z" fill="#10B5DC"/>
<path fill-rule="evenodd" clip-rule="evenodd" d="M92.8331 81.1444C91.263 81.5118 90.288 83.0824 90.6554 84.6524L95.3455 104.697C95.7129 106.267 97.2835 107.242 98.8536 106.875C100.424 106.508 101.399 104.937 101.031 103.367L96.3411 83.3221C95.9738 81.752 94.4032 80.777 92.8331 81.1444Z" fill="#10B5DC"/>
<path fill-rule="evenodd" clip-rule="evenodd" d="M72.5545 14.2075C74.1662 14.259 75.4309 15.6073 75.3794 17.2189L74.4093 47.5677C74.3578 49.1794 73.0095 50.4441 71.3979 50.3926C69.7862 50.3411 68.5215 48.9928 68.573 47.3812L69.5431 17.0324C69.5946 15.4207 70.9429 14.156 72.5545 14.2075Z" fill="#10B5DC"/>
<path fill-rule="evenodd" clip-rule="evenodd" d="M69.0842 122.763C67.4725 122.711 66.2078 121.363 66.2593 119.751L67.2294 89.4025C67.2809 87.7908 68.6292 86.5261 70.2408 86.5776C71.8525 86.6291 73.1172 87.9774 73.0657 89.5891L72.0956 119.938C72.0441 121.549 70.6958 122.814 69.0842 122.763Z" fill="#10B5DC"/>
<path fill-rule="evenodd" clip-rule="evenodd" d="M59.6108 116.889C58.5076 115.713 58.5666 113.865 59.7427 112.762L66.325 106.588C67.5011 105.484 69.3487 105.543 70.4519 106.72C71.5551 107.896 71.496 109.743 70.32 110.846L63.7377 117.021C62.5616 118.124 60.714 118.065 59.6108 116.889Z" fill="#10B5DC"/>
<path fill-rule="evenodd" clip-rule="evenodd" d="M69.2642 107.307C68.0881 108.411 68.0291 110.258 69.1323 111.434L75.3068 118.017C76.41 119.193 78.2577 119.252 79.4337 118.148C80.6098 117.045 80.6688 115.198 79.5656 114.022L73.3911 107.439C72.2879 106.263 70.4402 106.204 69.2642 107.307Z" fill="#10B5DC"/>
<path fill-rule="evenodd" clip-rule="evenodd" d="M72.4849 43.1452C71.3088 44.2484 69.4612 44.1893 68.358 43.0133L54.2738 27.9989C53.1706 26.8229 53.2296 24.9752 54.4057 23.8721C55.5817 22.7689 57.4294 22.8279 58.5326 24.004L72.6168 39.0183C73.72 40.1944 73.6609 42.042 72.4849 43.1452Z" fill="#10B5DC"/>
<path fill-rule="evenodd" clip-rule="evenodd" d="M69.1538 93.8251C70.3298 92.7219 72.1775 92.781 73.2807 93.957L87.3649 108.971C88.4681 110.147 88.409 111.995 87.233 113.098C86.057 114.201 84.2093 114.142 83.1061 112.966L69.0219 97.952C67.9187 96.776 67.9778 94.9283 69.1538 93.8251Z" fill="#10B5DC"/>
<path fill-rule="evenodd" clip-rule="evenodd" d="M70.7759 43.0913C71.8791 44.2673 73.7268 44.3264 74.9028 43.2232L89.9172 29.139C91.0932 28.0358 91.1523 26.1881 90.0491 25.0121C88.9459 23.8361 87.0983 23.777 85.9222 24.8802L70.9079 38.9644C69.7318 40.0676 69.6728 41.9153 70.7759 43.0913Z" fill="#10B5DC"/>
<path fill-rule="evenodd" clip-rule="evenodd" d="M70.8627 93.8798C69.7595 92.7037 67.9119 92.6447 66.7358 93.7479L51.7215 107.832C50.5454 108.935 50.4864 110.783 51.5896 111.959C52.6927 113.135 54.5404 113.194 55.7165 112.091L70.7308 98.0067C71.9068 96.9035 71.9659 95.0558 70.8627 93.8798Z" fill="#10B5DC"/>
</g>
</svg>
