<svg width="54" height="54" viewBox="0 0 54 54" fill="none" xmlns="http://www.w3.org/2000/svg">
<path opacity="0.5" d="M50.5014 22.1512C49.392 21.7813 43.5374 20.366 38.5472 15.4528C33.6337 10.4626 32.2184 4.60798 31.8488 3.49856C31.1549 1.40985 29.2011 0 27 0C24.7989 0 22.8451 1.40985 22.1512 3.49856C21.7813 4.60798 20.366 10.4626 15.4528 15.4528C10.4626 20.3663 4.60798 21.7813 3.49856 22.1512C1.40985 22.8451 0 24.7989 0 27C0 29.2011 1.40985 31.1549 3.49856 31.8488C4.60798 32.2187 10.4626 33.634 15.4528 38.5472C20.3663 43.5374 21.7816 49.392 22.1512 50.5014C22.8451 52.5902 24.7989 54 27 54C29.2011 54 31.1549 52.5902 31.8488 50.5014C32.2187 49.392 33.634 43.5374 38.5472 38.5472C43.5374 33.6337 49.392 32.2187 50.5014 31.8488C52.5901 31.1549 54 29.2011 54 27C54 24.7989 52.5901 22.8451 50.5014 22.1512Z" fill="white"/>
</svg>
