<svg width="126" height="130" viewBox="0 0 126 130" fill="none" xmlns="http://www.w3.org/2000/svg">
<line x1="78.5762" y1="14.6054" x2="47.6376" y2="115.516" stroke="white" stroke-width="4"/>
<line x1="117.141" y1="54.1265" x2="9.61155" y2="77.555" stroke="white" stroke-width="4"/>
<line y1="-2" x2="110.052" y2="-2" transform="matrix(0.689847 0.723956 0.723956 -0.689847 24.9902 24.0502)" stroke="white" stroke-width="4"/>
<line x1="86.3977" y1="91.1352" x2="107.126" y2="85.4157" stroke="white" stroke-width="4"/>
<line y1="-2" x2="21.5025" y2="-2" transform="matrix(0.281065 -0.959689 -0.959689 -0.281065 80.2754 110.061)" stroke="white" stroke-width="4"/>
<line y1="-2" x2="21.5025" y2="-2" transform="matrix(-0.64923 -0.760592 -0.760592 0.64923 27.0137 74.6934)" stroke="white" stroke-width="4"/>
<line x1="21.0915" y1="91.8897" x2="27.6528" y2="71.4128" stroke="white" stroke-width="4"/>
<line x1="97.0778" y1="60.0621" x2="102.867" y2="39.3537" stroke="white" stroke-width="4"/>
<line y1="-2" x2="21.5025" y2="-2" transform="matrix(-0.677265 -0.735739 -0.735739 0.677265 110.137 75.0664)" stroke="white" stroke-width="4"/>
<line y1="-2" x2="21.5025" y2="-2" transform="matrix(0.316817 -0.948487 -0.948487 -0.316817 35.6094 41.1645)" stroke="white" stroke-width="4"/>
<line x1="17.8238" y1="44.9578" x2="38.7514" y2="40.0188" stroke="white" stroke-width="4"/>
<line x1="34.4355" y1="71.794" x2="42.6536" y2="44.9897" stroke="white" stroke-width="4"/>
<line x1="54.4718" y1="92.6858" x2="35.3676" y2="72.1666" stroke="white" stroke-width="4"/>
<line y1="-2" x2="28.0358" y2="-2" transform="matrix(0.293127 -0.956074 -0.956074 -0.293127 80.0586 85.7818)" stroke="white" stroke-width="4"/>
<line y1="-2" x2="28.0358" y2="-2" transform="matrix(0.974547 -0.224181 -0.224181 -0.974547 53.2188 90.4901)" stroke="white" stroke-width="4"/>
<line x1="71.9011" y1="38.5306" x2="42.3228" y2="44.9864" stroke="white" stroke-width="4"/>
<line y1="-2" x2="30.2747" y2="-2" transform="matrix(0.689582 0.724208 0.724208 -0.689582 71.4746 36.5766)" stroke="white" stroke-width="4"/>
<line x1="73.6663" y1="34.3189" x2="58.6271" y2="18.9507" stroke="white" stroke-width="4"/>
<line y1="-2" x2="21.5025" y2="-2" transform="matrix(-0.975801 0.218659 0.218659 0.975801 93.1875 30.5112)" stroke="white" stroke-width="4"/>
<line y1="-2" x2="21.5025" y2="-2" transform="matrix(-0.979822 0.199872 0.199872 0.979822 54.5 100.099)" stroke="white" stroke-width="4"/>
<line x1="66.6768" y1="113.606" x2="51.9356" y2="97.9513" stroke="white" stroke-width="4"/>
<circle cx="55.7057" cy="31.7425" r="2.9475" transform="rotate(17.0453 55.7057 31.7425)" stroke="white" stroke-width="4"/>
<circle cx="88.817" cy="41.8941" r="2.9475" transform="rotate(17.0453 88.817 41.8941)" stroke="white" stroke-width="4"/>
<circle cx="37.819" cy="90.0811" r="2.9475" transform="rotate(17.0453 37.819 90.0811)" stroke="white" stroke-width="4"/>
<circle cx="70.9303" cy="100.233" r="2.9475" transform="rotate(17.0453 70.9303 100.233)" stroke="white" stroke-width="4"/>
<circle cx="96.9772" cy="77.1694" r="2.9475" transform="rotate(17.0453 96.9772 77.1694)" stroke="white" stroke-width="4"/>
<circle cx="27.6002" cy="55.8992" r="2.9475" transform="rotate(17.0453 27.6002 55.8992)" stroke="white" stroke-width="4"/>
</svg>
