<svg width="54" height="54" viewBox="0 0 54 54" fill="none" xmlns="http://www.w3.org/2000/svg">
<path d="M43.7604 19.436L29.3334 24.1519L36.2101 10.6415C36.5591 9.9621 36.287 9.09583 35.5885 8.75683C34.9091 8.40817 34.0424 8.68065 33.703 9.37904L26.8264 22.8895L22.1341 8.4593C21.9008 7.7168 21.097 7.3117 20.3638 7.56426C19.621 7.79781 19.2154 8.60153 19.4678 9.33437L24.16 23.7645L10.6483 16.8957C9.96891 16.5471 9.10225 16.8196 8.76284 17.5179C8.41378 18.1973 8.68594 19.0636 9.3844 19.4026L22.8961 26.2714L8.45949 30.9683C7.71666 31.2018 7.31108 32.0055 7.56341 32.7384C7.79671 33.4809 8.60054 33.886 9.33372 33.6334L23.7607 28.9175L16.884 42.4279C16.5349 43.1073 16.8072 43.9735 17.5056 44.3125C17.8597 44.4915 18.2319 44.5178 18.5746 44.3917C18.927 44.2846 19.2119 44.0443 19.3911 43.6903L26.2678 30.1799L30.96 44.6101C31.1933 45.3526 31.9971 45.7577 32.7302 45.5051C33.4731 45.2716 33.8787 44.4679 33.6263 43.735L28.9341 29.3049L42.4458 36.1736C42.7999 36.3526 43.1721 36.3789 43.5148 36.2528C43.8672 36.1457 44.1521 35.9055 44.3313 35.5514C44.6804 34.8721 44.4081 34.0058 43.7097 33.6668L30.198 26.798L44.6346 22.1011C45.3774 21.8676 45.783 21.0639 45.5307 20.331C45.2783 19.5982 44.5033 19.2024 43.7604 19.436Z" fill="#E63312"/>
</svg>
