<svg width="101" height="98" viewBox="0 0 101 98" fill="none" xmlns="http://www.w3.org/2000/svg">
<path fill-rule="evenodd" clip-rule="evenodd" d="M55.2218 57.8115C60.6765 54.8905 62.7305 48.1006 59.8094 42.6459C56.8884 37.1912 50.0986 35.1372 44.6439 38.0583C39.1892 40.9793 37.1352 47.7691 40.0562 53.2238C42.9772 58.6785 49.7671 60.7325 55.2218 57.8115ZM57.1807 61.4695C64.6556 57.4666 67.4703 48.162 63.4675 40.687C59.4646 33.2121 50.16 30.3974 42.685 34.4002C35.21 38.4031 32.3954 47.7077 36.3982 55.1827C40.4011 62.6577 49.7057 65.4723 57.1807 61.4695Z" fill="#10B5DC"/>
<path fill-rule="evenodd" clip-rule="evenodd" d="M16.3056 66.8843C15.7647 65.8742 16.145 64.6168 17.1552 64.0759L36.1768 53.8897C37.1869 53.3488 38.4443 53.7292 38.9852 54.7393C39.5262 55.7494 39.1458 57.0068 38.1357 57.5477L19.114 67.7339C18.1039 68.2748 16.8465 67.8944 16.3056 66.8843Z" fill="#10B5DC"/>
<path fill-rule="evenodd" clip-rule="evenodd" d="M84.3448 30.4492C84.8857 31.4593 84.5053 32.7167 83.4952 33.2576L64.4736 43.4438C63.4635 43.9847 62.2061 43.6043 61.6652 42.5942C61.1242 41.5841 61.5046 40.3267 62.5147 39.7858L81.5363 29.5996C82.5465 29.0587 83.8039 29.4391 84.3448 30.4492Z" fill="#10B5DC"/>
<path fill-rule="evenodd" clip-rule="evenodd" d="M16.5555 58.9677C16.8873 57.8709 18.0454 57.2508 19.1421 57.5825L25.2808 59.4395C26.3775 59.7713 26.9977 60.9294 26.6659 62.0261C26.3341 63.1229 25.1761 63.743 24.0793 63.4112L17.9406 61.5543C16.8439 61.2225 16.2237 60.0644 16.5555 58.9677Z" fill="#10B5DC"/>
<path fill-rule="evenodd" clip-rule="evenodd" d="M84.0949 38.3659C83.7631 39.4627 82.605 40.0828 81.5083 39.7511L75.3696 37.8941C74.2729 37.5623 73.6527 36.4043 73.9845 35.3075C74.3163 34.2107 75.4743 33.5906 76.5711 33.9224L82.7097 35.7793C83.8065 36.1111 84.4267 37.2692 84.0949 38.3659Z" fill="#10B5DC"/>
<path fill-rule="evenodd" clip-rule="evenodd" d="M25.8804 61.5032C24.7836 61.1714 23.6256 61.7916 23.2938 62.8883L21.4368 69.027C21.105 70.1237 21.7252 71.2818 22.822 71.6136C23.9187 71.9454 25.0768 71.3252 25.4086 70.2284L27.2655 64.0898C27.5973 62.993 26.9772 61.835 25.8804 61.5032Z" fill="#10B5DC"/>
<path fill-rule="evenodd" clip-rule="evenodd" d="M74.77 35.8291C75.8668 36.1609 77.0248 35.5407 77.3566 34.4439L79.2136 28.3053C79.5453 27.2085 78.9252 26.0505 77.8284 25.7187C76.7317 25.3869 75.5736 26.0071 75.2418 27.1038L73.3849 33.2425C73.0531 34.3392 73.6732 35.4973 74.77 35.8291Z" fill="#10B5DC"/>
<path fill-rule="evenodd" clip-rule="evenodd" d="M34.1391 56.6451C35.2359 56.9769 35.856 58.135 35.5243 59.2317L31.2885 73.234C30.9567 74.3308 29.7987 74.9509 28.7019 74.6191C27.6051 74.2873 26.985 73.1293 27.3168 72.0325L31.5525 58.0302C31.8843 56.9335 33.0424 56.3133 34.1391 56.6451Z" fill="#10B5DC"/>
<path fill-rule="evenodd" clip-rule="evenodd" d="M66.5113 40.6881C65.4145 40.3564 64.7943 39.1983 65.1261 38.1015L69.3619 24.0993C69.6937 23.0025 70.8517 22.3824 71.9485 22.7141C73.0452 23.0459 73.6654 24.204 73.3336 25.3007L69.0979 39.303C68.7661 40.3998 67.608 41.0199 66.5113 40.6881Z" fill="#10B5DC"/>
<path fill-rule="evenodd" clip-rule="evenodd" d="M34.7118 57.7165C35.0435 56.6197 34.4234 55.4616 33.3266 55.1299L19.3244 50.8941C18.2276 50.5623 17.0695 51.1825 16.7378 52.2792C16.406 53.376 17.0261 54.5341 18.1229 54.8658L32.1252 59.1016C33.2219 59.4334 34.38 58.8132 34.7118 57.7165Z" fill="#10B5DC"/>
<path fill-rule="evenodd" clip-rule="evenodd" d="M65.9367 39.6158C65.6049 40.7126 66.225 41.8706 67.3218 42.2024L81.3241 46.4382C82.4208 46.77 83.5789 46.1498 83.9107 45.053C84.2425 43.9563 83.6223 42.7982 82.5255 42.4664L68.5233 38.2307C67.4265 37.8989 66.2684 38.5191 65.9367 39.6158Z" fill="#10B5DC"/>
<path fill-rule="evenodd" clip-rule="evenodd" d="M17.5386 28.3137C18.1429 27.3402 19.422 27.0409 20.3955 27.6453L38.7278 39.0254C39.7013 39.6298 40.0006 40.9089 39.3963 41.8824C38.7919 42.8559 37.5128 43.1552 36.5393 42.5509L18.207 31.1707C17.2335 30.5664 16.9342 29.2873 17.5386 28.3137Z" fill="#10B5DC"/>
<path fill-rule="evenodd" clip-rule="evenodd" d="M83.1118 69.0199C82.5075 69.9934 81.2284 70.2927 80.2549 69.6883L61.9226 58.3082C60.9491 57.7039 60.6498 56.4248 61.2541 55.4512C61.8585 54.4777 63.1376 54.1784 64.1111 54.7828L82.4434 66.1629C83.4169 66.7672 83.7162 68.0464 83.1118 69.0199Z" fill="#10B5DC"/>
<path fill-rule="evenodd" clip-rule="evenodd" d="M76.1315 72.7623C75.0158 73.0234 73.8997 72.3305 73.6386 71.2148L72.1775 64.9701C71.9165 63.8544 72.6093 62.7383 73.725 62.4772C74.8407 62.2162 75.9568 62.909 76.2179 64.0247L77.679 70.2694C77.9401 71.3852 77.2472 72.5012 76.1315 72.7623Z" fill="#10B5DC"/>
<path fill-rule="evenodd" clip-rule="evenodd" d="M73.664 63.4168C73.9251 64.5325 75.0412 65.2254 76.1569 64.9643L82.4016 63.5032C83.5173 63.2421 84.2102 62.126 83.9491 61.0103C83.688 59.8946 82.572 59.2018 81.4562 59.4628L75.2115 60.924C74.0958 61.185 73.403 62.3011 73.664 63.4168Z" fill="#10B5DC"/>
<path fill-rule="evenodd" clip-rule="evenodd" d="M35.3222 38.6383C35.5833 39.754 34.8905 40.8701 33.7747 41.1311L19.5305 44.464C18.4148 44.725 17.2987 44.0322 17.0377 42.9165C16.7766 41.8008 17.4695 40.6847 18.5852 40.4236L32.8294 37.0908C33.9451 36.8297 35.0612 37.5226 35.3222 38.6383Z" fill="#10B5DC"/>
<path fill-rule="evenodd" clip-rule="evenodd" d="M65.3282 58.6961C65.0671 57.5804 65.7599 56.4643 66.8756 56.2032L81.1199 52.8704C82.2356 52.6093 83.3517 53.3021 83.6127 54.4179C83.8738 55.5336 83.1809 56.6497 82.0652 56.9107L67.821 60.2436C66.7053 60.5046 65.5892 59.8118 65.3282 58.6961Z" fill="#10B5DC"/>
<path fill-rule="evenodd" clip-rule="evenodd" d="M34.681 39.6707C35.7967 39.4096 36.4895 38.2935 36.2285 37.1778L32.8956 22.9336C32.6346 21.8179 31.5185 21.1251 30.4028 21.3861C29.2871 21.6472 28.5942 22.7633 28.8553 23.879L32.1881 38.1232C32.4492 39.2389 33.5653 39.9317 34.681 39.6707Z" fill="#10B5DC"/>
<path fill-rule="evenodd" clip-rule="evenodd" d="M65.9694 57.6625C64.8537 57.9235 64.1608 59.0396 64.4219 60.1553L67.7548 74.3995C68.0158 75.5152 69.1319 76.2081 70.2476 75.947C71.3633 75.686 72.0562 74.5699 71.7951 73.4542L68.4623 59.2099C68.2012 58.0942 67.0851 57.4014 65.9694 57.6625Z" fill="#10B5DC"/>
<path fill-rule="evenodd" clip-rule="evenodd" d="M51.5572 10.0962C52.7024 10.1328 53.6012 11.0909 53.5646 12.2362L52.8752 33.8024C52.8386 34.9477 51.8805 35.8464 50.7352 35.8098C49.59 35.7732 48.6912 34.8151 48.7278 33.6699L49.4172 12.1036C49.4538 10.9583 50.4119 10.0596 51.5572 10.0962Z" fill="#10B5DC"/>
<path fill-rule="evenodd" clip-rule="evenodd" d="M49.0932 87.2363C47.9479 87.1997 47.0492 86.2416 47.0858 85.0964L47.7752 63.5301C47.8118 62.3848 48.7699 61.4861 49.9151 61.5227C51.0604 61.5593 51.9592 62.5174 51.9225 63.6627L51.2332 85.2289C51.1966 86.3742 50.2385 87.2729 49.0932 87.2363Z" fill="#10B5DC"/>
<path fill-rule="evenodd" clip-rule="evenodd" d="M42.3608 83.0632C41.5769 82.2275 41.6189 80.9145 42.4546 80.1306L47.1321 75.7429C47.9678 74.9589 49.2808 75.0009 50.0647 75.8366C50.8487 76.6723 50.8067 77.9853 49.971 78.7692L45.2935 83.157C44.4578 83.9409 43.1448 83.8989 42.3608 83.0632Z" fill="#10B5DC"/>
<path fill-rule="evenodd" clip-rule="evenodd" d="M49.2202 76.2541C48.3845 77.0381 48.3425 78.3511 49.1265 79.1868L53.5142 83.8643C54.2981 84.7 55.6111 84.742 56.4468 83.958C57.2825 83.1741 57.3245 81.8611 56.5406 81.0254L52.1528 76.3479C51.3689 75.5122 50.0559 75.4702 49.2202 76.2541Z" fill="#10B5DC"/>
<path fill-rule="evenodd" clip-rule="evenodd" d="M51.5093 30.6588C50.6736 31.4427 49.3606 31.4008 48.5767 30.5651L38.5682 19.8957C37.7843 19.0599 37.8262 17.747 38.6619 16.963C39.4977 16.1791 40.8106 16.2211 41.5946 17.0568L51.603 27.7262C52.387 28.5619 52.345 29.8749 51.5093 30.6588Z" fill="#10B5DC"/>
<path fill-rule="evenodd" clip-rule="evenodd" d="M49.1411 66.6736C49.9768 65.8897 51.2898 65.9316 52.0737 66.7673L62.0822 77.4367C62.8661 78.2725 62.8242 79.5854 61.9884 80.3694C61.1527 81.1533 59.8398 81.1113 59.0558 80.2756L49.0474 69.6062C48.2634 68.7705 48.3054 67.4575 49.1411 66.6736Z" fill="#10B5DC"/>
<path fill-rule="evenodd" clip-rule="evenodd" d="M50.2934 30.6211C51.0774 31.4568 52.3904 31.4988 53.2261 30.7148L63.8955 20.7064C64.7312 19.9225 64.7732 18.6095 63.9892 17.7738C63.2053 16.9381 61.8923 16.8961 61.0566 17.68L50.3872 27.6885C49.5515 28.4724 49.5095 29.7854 50.2934 30.6211Z" fill="#10B5DC"/>
<path fill-rule="evenodd" clip-rule="evenodd" d="M50.3569 66.7125C49.573 65.8768 48.26 65.8348 47.4243 66.6188L36.7549 76.6272C35.9192 77.4112 35.8772 78.7241 36.6612 79.5599C37.4451 80.3956 38.7581 80.4375 39.5938 79.6536L50.2632 69.6452C51.0989 68.8612 51.1409 67.5482 50.3569 66.7125Z" fill="#10B5DC"/>
</svg>
